<svg version="1" xmlns="http://www.w3.org/2000/svg" width="682.667" height="682.667" viewBox="0 0 512.000000 512.000000"><path d="M228.6 3.1c-4.8 5.6-6.1 12.6-6 30.9.1 14.4.4 17.7 2.7 26.4 3.1 11.6 7.2 19.4 11.6 22 2.9 1.7 3.3 1.7 5.6.2 6.4-4.2 9-15.7 8.2-36.9-.8-20.7-5.1-35.9-12.2-43-3.6-3.5-6.7-3.5-9.9.4zM431 44.9c-17.7 5.4-53.4 49-58.1 71-.9 4.4-.8 5.6.5 7.6 2.2 3.4 5.5 3.2 12.7-.6 18.9-10.1 48.5-48.3 53-68.5 1-4.6 1-5.6-.5-7.8-1.7-2.7-3.2-3-7.6-1.7zM63.7 72.5c-4.3 4.2.7 13.1 15.7 28.1 16.7 16.6 34.8 29.2 50.8 35.4 22.6 8.7 23.9-2.6 3-24.3C109 86.8 70.9 65.3 63.7 72.5zM241 115.6c-23.8 3.1-44.7 10.8-64 23.7-10.6 7.1-27.5 24.3-34.5 35.1-24.9 38.3-26.8 84.9-5.3 125.6 7.1 13.3 14 23.1 35.1 49.7 20.8 26.1 26.9 34.9 33.2 47.8 8.8 18.1 11.8 32 11.8 54-.1 17.4.5 19.6 3.7 14.2l2.2-3.7 3.8 2c8.1 4.2 28.9 8 43.2 8 15.7 0 31.2-4.1 33.7-8.9 1.4-2.6.3-5-3.9-8.3l-2.9-2.3 2.5-5.3c1.4-2.8 6.8-16.6 12-30.5 14.5-38.5 26.2-65 44.5-101.2 17.1-33.8 20.7-42.2 23.9-55.8 5.1-21.3 2.8-46.9-6.2-68.5-18.6-44.6-64.2-74.4-116.3-75.7-7.1-.2-14.6-.1-16.5.1zm34.5 16.8c31.7 6.8 58.2 26.8 71.5 54.1 7.3 15 9.2 22.9 9.7 42.4.8 25.8-1.4 35.1-15.9 66.9-11.5 25.3-20.1 46.8-26.8 67.1-10.3 31.3-18 65.4-18.3 81.2l-.2 7.6-6.8-2.3c-14.6-4.9-40.5-6.8-55-4-6.8 1.3-6.9 1.3-6.3-.8.3-1.2.6-7.2.6-13.5v-11.3l3.4 3c7.4 6.5 25.1 10.7 41.1 9.9 11.7-.6 16.3-1.8 20.5-5.3 4.2-3.6 4-7.3-.6-11.4-7.6-6.6-20.8-10.3-37.4-10.4-13-.1-20.7 1.4-25 5l-2.8 2.4-1.7-7.3c-5-20.4-15.1-39.4-37.7-70.5-28.2-38.9-36.2-56.1-38.9-83.3-1.6-16.7-.7-32.9 2.5-45.3 10.1-39 43.5-68.3 86-75.2 9.8-1.6 28.3-1.1 38.1 1zM490 165.9c-26.6 6-60.9 22.9-75.2 37.2-14.7 14.7.1 18.1 32 7.4 30.1-10.1 62.3-29.9 64.8-40.1 1.5-6-7-7.7-21.6-4.5zM1.7 187.1c-4.3 2.5-.2 9.8 10.2 18.3 27.5 22.4 78.3 41.8 86.9 33.3 7-7-25.3-31.6-59.3-45.2-16.1-6.4-32.8-9.3-37.8-6.4zM228.8 484.3c-6.9 2-9.8 4.2-9.8 7.6 0 7.8 15.6 15.2 39.2 18.7 23.7 3.5 43.8-.5 43.8-8.7 0-4.7-12.1-11.7-26.9-15.6-11.8-3.1-38.3-4.2-46.3-2z"/></svg>